<svg id="calculator" xmlns="http://www.w3.org/2000/svg" width="113.946" height="113.946" viewBox="0 0 113.946 113.946">
  <g id="Group_10" data-name="Group 10" transform="translate(0)">
    <g id="Group_9" data-name="Group 9" transform="translate(40.527)">
      <path id="Path_24" data-name="Path 24" d="M248.623,0H189a6.9,6.9,0,0,0-6.9,6.892V39.259l36.71,2,36.71-2V6.892A6.9,6.9,0,0,0,248.623,0Z" transform="translate(-182.1)" fill="#407093"/>
      <path id="Path_25" data-name="Path 25" d="M240.725,69h41.964c1.9,0,3.449-1.982,3.449-5.448V54.78a3.447,3.447,0,0,0-3.447-3.447H240.723a3.447,3.447,0,0,0-3.447,3.447v8.773C237.276,67.688,238.82,69,240.725,69Z" transform="translate(-224.997 -39.909)" fill="#b3e59f"/>
      <path id="Path_26" data-name="Path 26" d="M189,248.958h59.625c3.809,0,6.9-2.678,6.9-8.895V176.4H182.1v63.661c0,6.633,3.088,8.895,6.9,8.895Z" transform="translate(-182.1 -137.144)" fill="#eef3f9"/>
      <path id="Path_27" data-name="Path 27" d="M237.278,213.233c0,2.7,1.028,4.3,2.3,4.3H246.5c1.269,0,2.3-1.634,2.3-4.3h0v-2.788a2.3,2.3,0,0,0-2.3-2.3h-6.93a2.3,2.3,0,0,0-2.3,2.3v2.789Z" transform="translate(-224.997 -161.824)" fill="#407093"/>
      <path id="Path_28" data-name="Path 28" d="M407.329,331.931h6.929c1.268,0,2.3-2.123,2.3-4.3V304.018a2.3,2.3,0,0,0-2.3-2.3h-6.93a2.3,2.3,0,0,0-2.3,2.3v23.627C405.03,330.3,406.064,331.931,407.329,331.931Z" transform="translate(-355.417 -234.572)" fill="#d75950"/>
      <path id="Path_29" data-name="Path 29" d="M248.623,469.343H189a6.9,6.9,0,0,1-6.9-6.892v4.135a6.9,6.9,0,0,0,6.9,6.892h59.625a6.9,6.9,0,0,0,6.9-6.892v-4.135A6.894,6.894,0,0,1,248.623,469.343Z" transform="translate(-182.1 -359.532)" fill="#dae3ed"/>
      <path id="Path_30" data-name="Path 30" d="M248.805,231v4.135a2.3,2.3,0,0,1-2.3,2.3h-6.927a2.3,2.3,0,0,1-2.3-2.3V231a2.3,2.3,0,0,0,2.3,2.3h6.927a2.3,2.3,0,0,0,2.3-2.3Z" transform="translate(-225 -179.59)" fill="#365e7d"/>
      <path id="Path_31" data-name="Path 31" d="M321.157,213.233c0,2.7,1.028,4.3,2.3,4.3h6.927c1.269,0,2.3-1.634,2.3-4.3h0v-2.788a2.3,2.3,0,0,0-2.3-2.3h-6.93a2.3,2.3,0,0,0-2.3,2.3v2.789Z" transform="translate(-290.209 -161.824)" fill="#407093"/>
      <path id="Path_32" data-name="Path 32" d="M332.687,231v4.135a2.3,2.3,0,0,1-2.3,2.3h-6.927a2.3,2.3,0,0,1-2.3-2.3V231a2.3,2.3,0,0,0,2.3,2.3h6.927a2.3,2.3,0,0,0,2.3-2.3Z" transform="translate(-290.214 -179.59)" fill="#365e7d"/>
      <path id="Path_33" data-name="Path 33" d="M405.037,213.233c0,2.7,1.028,4.3,2.3,4.3h6.927c1.269,0,2.3-1.634,2.3-4.3h0v-2.788a2.3,2.3,0,0,0-2.3-2.3h-6.93a2.3,2.3,0,0,0-2.3,2.3v2.789Z" transform="translate(-355.421 -161.824)" fill="#407093"/>
      <path id="Path_34" data-name="Path 34" d="M416.567,231v4.135a2.3,2.3,0,0,1-2.3,2.3H407.34a2.3,2.3,0,0,1-2.3-2.3V231a2.3,2.3,0,0,0,2.3,2.3h6.927a2.3,2.3,0,0,0,2.3-2.3Z" transform="translate(-355.425 -179.59)" fill="#365e7d"/>
      <path id="Path_35" data-name="Path 35" d="M237.278,306.806c0,2.7,1.028,4.3,2.3,4.3H246.5c1.269,0,2.3-1.634,2.3-4.3h0v-2.788a2.3,2.3,0,0,0-2.3-2.3h-6.93a2.3,2.3,0,0,0-2.3,2.3v2.789Z" transform="translate(-224.997 -234.572)" fill="#407093"/>
      <path id="Path_36" data-name="Path 36" d="M248.805,324.572v4.135a2.3,2.3,0,0,1-2.3,2.3h-6.927a2.3,2.3,0,0,1-2.3-2.3v-4.135a2.3,2.3,0,0,0,2.3,2.3h6.927A2.3,2.3,0,0,0,248.805,324.572Z" transform="translate(-225 -252.338)" fill="#365e7d"/>
      <path id="Path_37" data-name="Path 37" d="M321.157,306.806c0,2.7,1.028,4.3,2.3,4.3h6.927c1.269,0,2.3-1.634,2.3-4.3h0v-2.788a2.3,2.3,0,0,0-2.3-2.3h-6.93a2.3,2.3,0,0,0-2.3,2.3v2.789Z" transform="translate(-290.209 -234.572)" fill="#407093"/>
      <path id="Path_38" data-name="Path 38" d="M332.687,324.572v4.135a2.3,2.3,0,0,1-2.3,2.3h-6.927a2.3,2.3,0,0,1-2.3-2.3v-4.135a2.3,2.3,0,0,0,2.3,2.3h6.927A2.3,2.3,0,0,0,332.687,324.572Z" transform="translate(-290.214 -252.338)" fill="#365e7d"/>
      <path id="Path_39" data-name="Path 39" d="M237.278,400.308c0,2.7,1.028,4.3,2.3,4.3H246.5c1.269,0,2.3-1.634,2.3-4.3h0V397.52a2.3,2.3,0,0,0-2.3-2.3h-6.93a2.3,2.3,0,0,0-2.3,2.3v2.789Z" transform="translate(-224.997 -307.265)" fill="#407093"/>
      <path id="Path_40" data-name="Path 40" d="M248.805,418.074v4.135a2.3,2.3,0,0,1-2.3,2.3h-6.927a2.3,2.3,0,0,1-2.3-2.3v-4.135a2.3,2.3,0,0,0,2.3,2.3h6.927A2.3,2.3,0,0,0,248.805,418.074Z" transform="translate(-225 -325.031)" fill="#365e7d"/>
      <path id="Path_41" data-name="Path 41" d="M321.157,400.308c0,2.7,1.028,4.3,2.3,4.3h6.927c1.269,0,2.3-1.634,2.3-4.3h0V397.52a2.3,2.3,0,0,0-2.3-2.3h-6.93a2.3,2.3,0,0,0-2.3,2.3v2.789Z" transform="translate(-290.209 -307.265)" fill="#407093"/>
      <path id="Path_42" data-name="Path 42" d="M332.687,418.074v4.135a2.3,2.3,0,0,1-2.3,2.3h-6.927a2.3,2.3,0,0,1-2.3-2.3v-4.135a2.3,2.3,0,0,0,2.3,2.3h6.927A2.3,2.3,0,0,0,332.687,418.074Z" transform="translate(-290.214 -325.031)" fill="#365e7d"/>
      <path id="Path_43" data-name="Path 43" d="M416.555,418.147v4.135a2.3,2.3,0,0,1-2.3,2.3h-6.929a2.3,2.3,0,0,1-2.3-2.3v-4.135a2.3,2.3,0,0,0,2.3,2.3h6.929A2.3,2.3,0,0,0,416.555,418.147Z" transform="translate(-355.414 -325.088)" fill="#ca4844"/>
      <path id="Path_44" data-name="Path 44" d="M282.688,109.686H240.725a3.447,3.447,0,0,1-3.449-3.446v4.135a3.447,3.447,0,0,0,3.449,3.446h41.964a3.447,3.447,0,0,0,3.449-3.446V106.24A3.448,3.448,0,0,1,282.688,109.686Z" transform="translate(-224.996 -82.596)" fill="#95d6a4"/>
    </g>
    <path id="Path_45" data-name="Path 45" d="M.361,299.221A26.615,26.615,0,0,0,26.684,325.54a26.615,26.615,0,0,0,26.323-26.318,26.406,26.406,0,0,0-52.645,0Z" transform="translate(-0.281 -213.725)" fill="#ecbb5d"/>
    <path id="Path_46" data-name="Path 46" d="M38.877,328.993a17.789,17.789,0,0,0,17.751,17.8,18.1,18.1,0,0,0,17.751-17.8,17.872,17.872,0,0,0-35.5,0Z" transform="translate(-30.225 -243.497)" fill="#f5de8e"/>
    <path id="Path_47" data-name="Path 47" d="M56.2,399.956a17.869,17.869,0,0,1-17.751-15.793,17.874,17.874,0,1,0,35.5,0A17.869,17.869,0,0,1,56.2,399.956Z" transform="translate(-29.795 -298.667)" fill="#edd17a"/>
    <path id="Path_48" data-name="Path 48" d="M26.4,408.477A26.4,26.4,0,0,1,.08,384.162Q0,385.186,0,386.23a26.4,26.4,0,0,0,52.806,0q0-1.044-.08-2.068A26.4,26.4,0,0,1,26.4,408.477Z" transform="translate(0 -298.666)" fill="#e5a84c"/>
  </g>
  <path id="Icon_awesome-ethereum" data-name="Icon awesome-ethereum" d="M13.914,11.458,7.24,15.535.563,11.458,7.24,0ZM7.24,16.844.563,12.767,7.24,22.494l6.678-9.727Z" transform="translate(19.026 76.965)" fill="#fff"/>
</svg>
