<?xml version="1.0" standalone="no"?>
<!DOCTYPE svg PUBLIC "-//W3C//DTD SVG 20010904//EN"
 "http://www.w3.org/TR/2001/REC-SVG-20010904/DTD/svg10.dtd">
<svg version="1.0" xmlns="http://www.w3.org/2000/svg"
 width="752.000000pt" height="648.000000pt" viewBox="0 0 752.000000 648.000000"
 preserveAspectRatio="xMidYMid meet">
<metadata>
Created by potrace 1.16, written by Peter Selinger 2001-2019
</metadata>
<g transform="translate(0.000000,648.000000) scale(0.100000,-0.100000)"
fill="#000000" stroke="none">
<path d="M4140 6324 c120 -94 249 -265 361 -479 81 -156 101 -182 163 -211
123 -57 263 -8 322 114 29 58 24 153 -10 225 -103 214 -381 350 -766 373
l-105 6 35 -28z"/>
<path d="M3350 6200 c-147 -24 -303 -78 -468 -162 -100 -50 -284 -160 -278
-165 2 -2 51 10 108 26 276 77 524 65 742 -37 144 -68 242 -141 496 -367 390
-348 586 -452 917 -485 170 -17 427 12 608 69 l60 19 -55 1 c-156 3 -348 50
-491 122 -167 83 -287 180 -603 488 -123 120 -264 248 -313 285 -97 74 -275
166 -368 191 -71 19 -277 28 -355 15z"/>
<path d="M1985 5270 c13 -45 113 -233 167 -315 70 -107 205 -241 295 -294 120
-71 204 -93 375 -99 164 -5 198 -1 553 63 132 24 299 48 370 55 458 40 824
-138 1134 -550 72 -95 73 -87 15 64 -55 140 -156 341 -225 446 -74 112 -235
278 -329 338 -145 94 -299 135 -510 135 -161 1 -258 -12 -550 -73 -340 -71
-424 -83 -585 -84 -114 -1 -169 4 -230 18 -161 37 -301 120 -420 248 -48 51
-65 66 -60 48z"/>
<path d="M1917 3566 c-101 -12 -117 -20 -117 -62 0 -39 21 -46 129 -38 l101 7
0 -237 c0 -130 -2 -236 -5 -236 -2 0 -30 18 -62 40 -88 62 -169 83 -306 78
-101 -3 -119 -6 -180 -35 -176 -83 -270 -250 -270 -478 0 -170 49 -300 148
-394 98 -93 199 -127 354 -119 115 6 185 30 269 93 l60 43 8 -51 c12 -72 24
-76 171 -61 65 7 123 13 130 13 20 1 43 31 43 56 0 38 -27 45 -139 38 l-101
-6 0 669 c0 508 -3 673 -12 682 -14 14 -87 14 -221 -2z m-44 -583 c36 -17 86
-50 111 -73 l46 -43 0 -251 -1 -251 -29 -32 c-91 -101 -207 -149 -340 -141
-138 8 -230 72 -291 203 -85 180 -47 423 84 540 74 68 131 86 253 82 88 -3
109 -8 167 -34z"/>
<path d="M5277 3566 c-77 -9 -102 -16 -113 -31 -19 -25 -18 -39 5 -59 16 -15
32 -16 120 -10 l101 7 0 -632 0 -631 -85 0 c-73 0 -86 -3 -95 -19 -14 -27 -13
-47 6 -65 13 -14 49 -16 233 -16 198 0 219 2 234 18 45 49 6 82 -96 82 l-77 0
0 282 c0 264 1 284 21 324 30 64 95 123 177 162 63 30 87 36 166 40 109 5 167
-14 208 -69 45 -61 48 -84 48 -420 l0 -319 -103 0 c-67 0 -107 -4 -115 -12
-19 -19 -15 -66 7 -78 12 -6 112 -10 255 -10 200 0 237 2 250 16 9 8 16 24 16
34 0 38 -27 50 -110 50 l-79 0 -3 343 -3 342 -28 57 c-56 115 -153 168 -306
168 -152 0 -298 -64 -370 -162 l-31 -42 0 313 c0 196 -4 320 -10 332 -13 22
-64 24 -223 5z"/>
<path d="M2506 3551 c-23 -26 -17 -63 14 -78 14 -7 62 -13 113 -13 l87 0 0
-619 c0 -570 -1 -619 -17 -625 -9 -4 -62 -6 -117 -5 -56 0 -109 -2 -118 -6
-26 -10 -32 -43 -14 -70 l16 -25 614 0 c581 0 614 1 629 18 15 16 17 47 17
220 l0 202 -25 16 c-23 15 -27 15 -50 0 -14 -9 -25 -17 -26 -19 0 -1 -6 -76
-12 -167 l-12 -165 -380 0 -380 0 -3 308 -2 307 202 -2 203 -3 10 -101 c6 -57
16 -108 24 -118 19 -23 47 -20 65 6 13 19 16 61 16 259 0 217 -2 239 -19 260
-16 20 -22 22 -45 11 -29 -13 -34 -27 -44 -132 l-7 -75 -202 -3 -203 -2 0 265
0 265 380 0 380 0 0 -37 c0 -21 5 -94 10 -163 7 -100 12 -127 26 -137 25 -18
41 -16 64 7 19 19 20 33 20 210 0 177 -1 191 -20 210 -20 20 -33 20 -598 20
-558 0 -580 -1 -596 -19z"/>
<path d="M4205 3410 c-15 -17 -20 -49 -29 -175 l-10 -155 -91 0 c-101 0 -135
-14 -135 -55 0 -41 34 -55 137 -55 l93 0 0 -327 c0 -206 4 -343 11 -368 7 -27
29 -57 64 -92 76 -73 157 -98 299 -90 173 9 366 87 366 147 0 22 -28 60 -46
60 -8 0 -31 -11 -52 -24 -94 -62 -297 -102 -390 -77 -59 16 -111 66 -122 116
-5 22 -10 178 -10 348 l0 307 240 0 c227 0 241 1 260 20 24 24 25 39 6 66 -13
18 -30 19 -260 22 l-246 3 0 162 c0 114 -4 167 -12 175 -18 18 -53 14 -73 -8z"/>
<path d="M361 1350 c-51 -78 -94 -191 -116 -299 -25 -123 -17 -315 19 -436 28
-94 95 -232 125 -259 16 -15 19 -15 35 3 17 19 16 23 -28 113 -69 140 -88 225
-89 393 -2 172 21 274 90 413 l46 94 -21 20 -21 21 -40 -63z"/>
<path d="M6665 1390 c-19 -21 -18 -21 17 -88 138 -257 140 -585 6 -845 -39
-75 -40 -78 -23 -97 17 -19 20 -19 36 -4 30 27 96 165 125 259 25 82 28 105
28 255 1 143 -2 175 -22 245 -25 89 -88 225 -124 268 l-23 29 -20 -22z"/>
<path d="M1490 890 l0 -380 35 0 35 0 0 224 0 224 53 23 c32 14 73 23 106 23
47 1 56 -2 75 -27 20 -27 21 -42 24 -248 l4 -219 35 0 35 0 -4 228 c-3 207 -5
230 -23 262 -40 69 -129 87 -235 50 -30 -11 -58 -19 -62 -20 -5 0 -8 54 -8
120 l0 120 -35 0 -35 0 0 -380z"/>
<path d="M560 870 l0 -360 195 0 c200 0 209 2 186 38 -6 10 -47 14 -157 15
l-149 2 -3 147 -3 147 143 3 c140 3 143 4 146 26 3 17 -2 22 -20 23 -13 0 -77
1 -143 2 l-120 2 -3 127 -3 127 153 3 153 3 3 28 3 27 -190 0 -191 0 0 -360z"/>
<path d="M1125 1153 c-9 -93 -9 -93 -55 -93 -36 0 -40 -2 -40 -25 0 -22 4 -25
39 -25 l39 0 4 -197 c4 -180 6 -202 26 -240 12 -23 30 -47 41 -52 30 -17 97
-24 146 -17 43 7 46 9 43 34 -3 25 -6 26 -51 23 -60 -3 -101 12 -116 45 -7 16
-11 95 -11 214 l0 190 85 0 c84 0 85 0 85 25 0 25 -1 25 -85 25 l-84 0 -3 78
c-3 75 -4 77 -30 80 -26 3 -26 2 -33 -65z"/>
<path d="M7016 1165 c-50 -17 -56 -25 -45 -54 7 -17 14 -21 27 -16 96 42 159
42 187 2 8 -12 15 -41 15 -64 0 -41 -5 -49 -94 -141 -99 -104 -120 -135 -131
-195 l-7 -37 146 0 146 0 0 30 0 30 -105 0 c-58 0 -105 2 -105 5 0 21 39 70
105 134 95 91 115 123 115 181 0 88 -60 140 -162 140 -29 -1 -70 -7 -92 -15z"/>
<path d="M2887 1056 c-49 -18 -67 -34 -84 -73 -30 -72 -7 -151 54 -181 21 -11
70 -29 108 -42 81 -25 115 -56 115 -103 0 -89 -99 -118 -234 -71 -42 15 -56 9
-56 -28 0 -46 214 -71 280 -32 74 43 101 132 64 210 -19 40 -45 55 -163 95
-47 16 -92 36 -98 46 -20 26 -15 69 10 99 28 33 104 43 172 24 51 -14 53 -13
57 20 3 20 -4 26 -37 36 -53 17 -141 16 -188 0z"/>
<path d="M3780 1050 c-30 -11 -56 -19 -57 -20 -2 0 -3 7 -3 15 0 10 -11 15
-35 15 l-35 0 0 -276 0 -275 38 3 37 3 3 232 2 232 52 16 c59 17 121 20 148 5
33 -18 40 -66 40 -281 l0 -209 35 0 36 0 -2 233 -1 232 29 14 c15 8 55 17 88
19 49 3 65 0 85 -16 l25 -20 5 -229 5 -228 38 -3 39 -3 -4 223 c-3 201 -5 226
-23 257 -46 79 -136 101 -251 62 -61 -20 -61 -20 -100 -1 -49 25 -122 25 -194
0z"/>
<path d="M4619 1060 c-49 -14 -79 -42 -106 -98 -26 -52 -28 -67 -28 -172 0
-103 3 -121 26 -171 44 -93 130 -133 236 -109 108 24 163 119 163 280 0 188
-74 282 -220 279 -25 0 -57 -4 -71 -9z m149 -70 c52 -32 66 -77 67 -205 0 -95
-3 -116 -23 -152 -25 -48 -43 -60 -98 -68 -62 -8 -105 13 -134 65 -22 40 -25
56 -25 155 0 95 3 116 23 152 12 23 34 49 50 57 39 22 101 20 140 -4z"/>
<path d="M5180 1051 c-67 -25 -70 -25 -70 -6 0 10 -10 15 -30 15 l-30 0 0
-275 0 -275 35 0 35 0 0 231 0 230 37 15 c44 19 131 29 167 20 50 -12 56 -44
56 -281 l0 -215 35 0 35 0 0 223 c0 244 -5 269 -63 311 -40 29 -136 32 -207 7z"/>
<path d="M5732 1059 c-46 -14 -106 -77 -126 -134 -20 -62 -21 -204 -1 -272 39
-132 201 -188 353 -122 45 19 49 26 29 53 -12 16 -15 16 -52 0 -59 -26 -166
-25 -202 2 -35 26 -64 83 -71 140 l-5 44 174 2 174 3 3 57 c4 78 -12 132 -55
178 -50 56 -133 74 -221 49z m138 -62 c41 -21 70 -74 70 -128 l0 -49 -141 0
-142 0 7 42 c10 59 46 119 81 134 38 17 93 17 125 1z"/>
<path d="M2410 1035 c0 -23 3 -25 50 -25 44 0 50 -3 56 -24 3 -13 4 -113 2
-222 l-3 -199 -52 -3 c-49 -3 -53 -5 -53 -28 l0 -24 146 0 c145 0 145 0 142
23 -3 19 -10 22 -55 25 l-53 3 0 250 0 249 -90 0 c-89 0 -90 0 -90 -25z"/>
<path d="M6103 1048 c3 -7 53 -125 111 -263 58 -137 106 -256 106 -264 0 -32
-36 -124 -57 -148 -21 -22 -29 -24 -73 -18 l-50 7 0 -30 c0 -25 5 -30 31 -36
83 -16 128 4 163 73 14 27 73 187 132 357 59 170 109 315 111 322 4 8 -7 12
-34 12 l-39 0 -72 -225 c-40 -124 -74 -225 -76 -225 -2 0 -43 101 -91 225
l-89 225 -39 0 c-27 0 -38 -4 -34 -12z"/>
</g>
</svg>
