<svg id="fast-time" xmlns="http://www.w3.org/2000/svg" width="113.946" height="110.104" viewBox="0 0 113.946 110.104">
  <g id="Group_12" data-name="Group 12" transform="translate(0 26.711)">
    <path id="Path_50" data-name="Path 50" d="M57.089,132.042H34.046a1.694,1.694,0,0,1,0-3.388H57.089a1.694,1.694,0,1,1,0,3.388Zm-34.331,0H1.694a1.694,1.694,0,1,1,0-3.388H22.758a1.694,1.694,0,1,1,0,3.388Z" transform="translate(0 -128.654)" fill="#d9eeff"/>
  </g>
  <g id="Group_13" data-name="Group 13" transform="translate(6.774 38.569)">
    <path id="Path_51" data-name="Path 51" d="M48.054,185.322H32.131a1.694,1.694,0,0,1,0-3.388H48.054a1.694,1.694,0,1,1,0,3.388Z" transform="translate(-30.437 -181.934)" fill="#d9eeff"/>
  </g>
  <g id="Group_14" data-name="Group 14" transform="translate(0 62.278)">
    <path id="Path_52" data-name="Path 52" d="M13.609,291.856H1.694a1.694,1.694,0,1,1,0-3.388H13.609a1.694,1.694,0,1,1,0,3.388Z" transform="translate(0 -288.468)" fill="#d9eeff"/>
  </g>
  <g id="Group_15" data-name="Group 15" transform="translate(5.474 74.136)">
    <path id="Path_53" data-name="Path 53" d="M45.825,345.137H26.291a1.694,1.694,0,1,1,0-3.388H45.825a1.694,1.694,0,1,1,0,3.388Z" transform="translate(-24.597 -341.749)" fill="#d9eeff"/>
  </g>
  <g id="Group_16" data-name="Group 16" transform="translate(10.391 85.993)">
    <path id="Path_54" data-name="Path 54" d="M56.683,398.418h-8.3a1.694,1.694,0,0,1,0-3.388h8.3a1.694,1.694,0,0,1,0,3.388Z" transform="translate(-46.691 -395.03)" fill="#d9eeff"/>
  </g>
  <g id="Group_17" data-name="Group 17" transform="translate(20.385 97.851)">
    <path id="Path_55" data-name="Path 55" d="M118.322,451.7H93.293a1.694,1.694,0,0,1,0-3.388h25.029a1.694,1.694,0,0,1,0,3.388Z" transform="translate(-91.599 -448.311)" fill="#d9eeff"/>
  </g>
  <g id="Group_18" data-name="Group 18" transform="translate(13.913 50.426)">
    <path id="Path_56" data-name="Path 56" d="M77.372,238.6H64.208a1.694,1.694,0,1,1,0-3.388H77.372a1.694,1.694,0,0,1,0,3.388Z" transform="translate(-62.514 -235.215)" fill="#d9eeff"/>
  </g>
  <g id="Group_19" data-name="Group 19" transform="translate(74.695 9.901)">
    <path id="Path_57" data-name="Path 57" d="M341.01,53.122l-5.378,15.3a44.289,44.289,0,0,1,16.134,5.314l5.378-15.3Z" transform="translate(-335.632 -53.122)" fill="#eff6ff"/>
  </g>
  <g id="Group_20" data-name="Group 20" transform="translate(73.45 0)">
    <path id="Path_58" data-name="Path 58" d="M332.153,10.351l-1.991,6.044a2.505,2.505,0,0,0,1.588,3.156l3.829,1.255,16.128,5.314,3.822,1.261a2.508,2.508,0,0,0,3.156-1.594l1.991-6.044a2.509,2.509,0,0,0-1.594-3.156L335.309,8.756a2.508,2.508,0,0,0-3.156,1.594Z" transform="translate(-330.037 -8.632)" fill="#375e7d"/>
  </g>
  <g id="Group_21" data-name="Group 21" transform="translate(93.051 6.015)">
    <path id="Path_59" data-name="Path 59" d="M424,48.394a2.508,2.508,0,0,0,3.156-1.594l1.991-6.044a2.509,2.509,0,0,0-1.594-3.156l-5.89-1.94a2.508,2.508,0,0,1,1.594,3.156l-1.991,6.044a2.509,2.509,0,0,1-3.156,1.594h.013l2.055.679Z" transform="translate(-418.112 -35.659)" fill="#2b4d66"/>
  </g>
  <g id="Group_22" data-name="Group 22" transform="translate(26.282 22.436)">
    <path id="Path_60" data-name="Path 60" d="M148.216,194.9a43.827,43.827,0,1,0-27.909-55.332A43.823,43.823,0,0,0,148.216,194.9Z" transform="translate(-118.094 -109.445)" fill="#375e7d"/>
  </g>
  <g id="Group_23" data-name="Group 23" transform="translate(35.954 32.11)">
    <path id="Path_61" data-name="Path 61" d="M206.4,154.639a34.15,34.15,0,1,0,21.756,43.122l.019-.064A34.149,34.149,0,0,0,206.4,154.639Z" transform="translate(-161.556 -152.915)" fill="#eff6ff"/>
  </g>
  <g id="Group_24" data-name="Group 24" transform="translate(71.62 33.834)">
    <path id="Path_62" data-name="Path 62" d="M330.99,160.662l-8.9,27.019a5.824,5.824,0,0,0,3.592,7.12l27.083,8.919A34.149,34.149,0,0,0,330.99,160.662Z" transform="translate(-321.813 -160.662)" fill="#eb5468"/>
  </g>
  <g id="Group_25" data-name="Group 25" transform="translate(87.039 36.601)">
    <path id="Path_63" data-name="Path 63" d="M406.631,213.383A34.166,34.166,0,0,0,391.1,173.091a74.245,74.245,0,0,1,3.765,23.568,76.132,76.132,0,0,1-1.024,12.511Z" transform="translate(-391.098 -173.091)" fill="#e5384f"/>
  </g>
  <g id="Group_26" data-name="Group 26" transform="translate(69.913 23.885)">
    <path id="Path_64" data-name="Path 64" d="M355.963,172.049a43.837,43.837,0,0,0-20.1-51.894,43.088,43.088,0,0,0-5.653-2.663c-.711-.275-1.428-.531-2.158-.775-.858-.282-1.716-.538-2.58-.762a65.551,65.551,0,0,1,5.8,12.716A34.166,34.166,0,0,1,346.8,168.963c-.006.019-.013.038-.019.064a34.116,34.116,0,0,1-22.966,22.128,53.694,53.694,0,0,1-9.674,11.019,43.833,43.833,0,0,0,41.821-30.125Z" transform="translate(-314.142 -115.955)" fill="#2b4d66"/>
  </g>
  <g id="Group_27" data-name="Group 27" transform="translate(79.587 72.68)">
    <path id="Path_65" data-name="Path 65" d="M357.611,361.612a34.116,34.116,0,0,0,22.966-22.128l.019-.064L367.8,335.207a69.775,69.775,0,0,1-6.377,19.829A62.25,62.25,0,0,1,357.611,361.612Z" transform="translate(-357.611 -335.207)" fill="#d9eeff"/>
  </g>
  <g id="Group_28" data-name="Group 28" transform="translate(85.977 15.548)">
    <path id="Path_66" data-name="Path 66" d="M391.975,91.033l3.489-10.6-2.068-.679L389.575,78.5l-3.253,9.873A43.142,43.142,0,0,1,391.975,91.033Z" transform="translate(-386.322 -78.496)" fill="#d9eeff"/>
  </g>
  <g id="Group_29" data-name="Group 29" transform="translate(57.776 91.358)">
    <path id="Path_67" data-name="Path 67" d="M261.3,428.063a1.7,1.7,0,0,1-1.609-2.225l1.825-5.538a1.694,1.694,0,1,1,3.218,1.06l-1.825,5.538A1.694,1.694,0,0,1,261.3,428.063Z" transform="translate(-259.606 -419.136)" fill="#375e7d"/>
  </g>
  <g id="Group_30" data-name="Group 30" transform="translate(36.065 53.851)">
    <path id="Path_68" data-name="Path 68" d="M169.279,255.818a1.688,1.688,0,0,1-.531-.086l-5.532-1.825a1.694,1.694,0,0,1,1.062-3.217l5.532,1.825a1.694,1.694,0,0,1-.531,3.3Z" transform="translate(-162.052 -250.604)" fill="#375e7d"/>
  </g>
  <g id="Group_31" data-name="Group 31" transform="translate(53.083 34.08)">
    <path id="Path_69" data-name="Path 69" d="M242.846,170.361a1.694,1.694,0,0,1-1.513-.93l-2.632-5.205a1.694,1.694,0,0,1,3.024-1.528l2.632,5.205a1.695,1.695,0,0,1-1.51,2.459Z" transform="translate(-238.519 -161.767)" fill="#375e7d"/>
  </g>
  <g id="Group_32" data-name="Group 32" transform="translate(81.171 89.745)">
    <path id="Path_70" data-name="Path 70" d="M369.049,420.481a1.694,1.694,0,0,1-1.514-.932l-2.625-5.205a1.694,1.694,0,1,1,3.025-1.525l2.625,5.205a1.695,1.695,0,0,1-1.511,2.457Z" transform="translate(-364.728 -411.887)" fill="#375e7d"/>
  </g>
  <g id="Group_33" data-name="Group 33" transform="translate(38.005 77.247)">
    <path id="Path_71" data-name="Path 71" d="M172.465,361.744a1.694,1.694,0,0,1-.764-3.207l5.205-2.625a1.694,1.694,0,0,1,1.525,3.025l-5.205,2.625A1.687,1.687,0,0,1,172.465,361.744Z" transform="translate(-170.769 -355.729)" fill="#375e7d"/>
  </g>
  <g id="Group_34" data-name="Group 34" transform="translate(51.521 49.658)">
    <path id="Path_72" data-name="Path 72" d="M245.493,246.363a1.688,1.688,0,0,1-1.141-.442l-12.3-11.211a1.694,1.694,0,0,1,2.282-2.5l12.3,11.211a1.694,1.694,0,0,1-1.141,2.946Z" transform="translate(-231.5 -231.764)" fill="#375e7d"/>
  </g>
  <g id="Group_35" data-name="Group 35" transform="translate(69.14 70.173)">
    <path id="Path_73" data-name="Path 73" d="M313.106,333.689a1.694,1.694,0,0,1-1.68-1.5l-.743-6.358a1.694,1.694,0,0,1,3.365-.393l.743,6.358a1.694,1.694,0,0,1-1.486,1.879A1.759,1.759,0,0,1,313.106,333.689Z" transform="translate(-310.672 -323.943)" fill="#375e7d"/>
  </g>
  <g id="Group_36" data-name="Group 36" transform="translate(34.267 30.408)">
    <path id="Path_74" data-name="Path 74" d="M189.86,216.992a35.855,35.855,0,1,1,34.034-24.735l-.013.044-.014.043a35.9,35.9,0,0,1-34.007,24.647Zm-.074-68.337a32.467,32.467,0,1,0,30.856,42.65l.012-.042.012-.04A32.5,32.5,0,0,0,199.973,150.3h0A32.512,32.512,0,0,0,189.786,148.655Zm32.472,43.159h0Z" transform="translate(-153.972 -145.265)" fill="#ffc250"/>
  </g>
  <g id="Group_37" data-name="Group 37" transform="translate(64.494 60.57)">
    <path id="Path_75" data-name="Path 75" d="M297.2,281.076a5.639,5.639,0,1,0,3.592,7.12A5.639,5.639,0,0,0,297.2,281.076Z" transform="translate(-289.792 -280.792)" fill="#ffe07d"/>
  </g>
  <g id="Group_38" data-name="Group 38" transform="translate(67.422 60.57)">
    <path id="Path_76" data-name="Path 76" d="M311.018,288.2a5.64,5.64,0,0,0-8.067-6.71,5.644,5.644,0,0,1,.6,10.18c.115.045.231.083.346.122A5.638,5.638,0,0,0,311.018,288.2Z" transform="translate(-302.951 -280.795)" fill="#ffe07d"/>
  </g>
</svg>
