<?xml version="1.0" encoding="utf-8"?>
<!-- Generator: Adobe Illustrator 24.0.2, SVG Export Plug-In . SVG Version: 6.00 Build 0)  -->
<svg version="1.1" id="Layer_1" xmlns="http://www.w3.org/2000/svg" xmlns:xlink="http://www.w3.org/1999/xlink" x="0px" y="0px"
	 viewBox="0 0 135.9 107.7" style="enable-background:new 0 0 135.9 107.7;" xml:space="preserve">
<style type="text/css">
	.st0{fill:url(#Path_15_1_);}
	.st1{fill:url(#Path_16_1_);}
	.st2{fill:#FFB300;}
</style>
<g id="logo_2" transform="translate(0 0)">
	<g id="Layer_1_1_" transform="translate(0 0)">
		
			<linearGradient id="Path_15_1_" gradientUnits="userSpaceOnUse" x1="-226.6506" y1="469.4768" x2="-225.6506" y2="469.4768" gradientTransform="matrix(97.4703 0 0 -76.94 22111.2051 36181.082)">
			<stop  offset="0" style="stop-color:#15FF70"/>
			<stop  offset="0.36" style="stop-color:#20E296"/>
			<stop  offset="1" style="stop-color:#36A9E1"/>
		</linearGradient>
		<path id="Path_15" class="st0" d="M61.8,97.9c0.6,0.2,1.3,0.1,1.9-0.2l52-30c1.2-0.6,1.7-2.1,1.1-3.4c-0.6-1.2-2.1-1.7-3.4-1.1
			c-0.1,0-0.2,0.1-0.2,0.1L63.4,92.1L26.8,28.6l2.9-1.7l-10.2-5.9v11.7l2.9-1.7l37.9,65.6C60.6,97.4,61.1,97.8,61.8,97.9L61.8,97.9z
			"/>
		
			<linearGradient id="Path_16_1_" gradientUnits="userSpaceOnUse" x1="-225.847" y1="467.8051" x2="-224.847" y2="467.8051" gradientTransform="matrix(72.6285 0 0 -57.4057 16438.4004 26902.166)">
			<stop  offset="0" style="stop-color:#FFB300"/>
			<stop  offset="0.54" style="stop-color:#E02235"/>
		</linearGradient>
		<path id="Path_16" class="st1" d="M69.2,70.3l-29-50.2c-0.7-1.2-2.2-1.6-3.4-1c-1.2,0.7-1.6,2.2-1,3.4c0,0,0,0.1,0.1,0.1L66.1,75
			c0.7,1.2,2.2,1.6,3.4,0.9c0,0,0,0,0,0l31.1-17.9l1.7,2.9l5.9-10.2H96.4l1.7,2.9L69.2,70.3z"/>
		<ellipse id="Ellipse_2" class="st2" cx="33.8" cy="14" rx="3" ry="3"/>
	</g>
</g>
</svg>
