<svg xmlns="http://www.w3.org/2000/svg" xmlns:xlink="http://www.w3.org/1999/xlink" width="119.212" height="54.057" viewBox="0 0 119.212 54.057"><defs><style>.a{fill:#97d0d6;}.b{fill:#f9d869;}.c{clip-path:url(#a);}.d{fill:#f1f1f3;}.e{fill:#fff;}</style><clipPath id="a"><circle class="a" cx="23.076" cy="23.076" r="23.076"/></clipPath></defs><g transform="translate(-1341.443 -4554.776)"><path class="b" d="M235.089,130.029A27.068,27.068,0,0,0,208.353,153.1H196.671a27.029,27.029,0,1,0,0,7.906h11.682a27.028,27.028,0,1,0,26.737-30.981Zm-65.155,46.152a19.123,19.123,0,1,1,19.123-19.123A19.145,19.145,0,0,1,169.935,176.181Zm65.155,0a19.123,19.123,0,1,1,19.123-19.123A19.145,19.145,0,0,1,235.089,176.181Z" transform="translate(1198.537 4424.747)"/><g class="c" transform="translate(1345.396 4558.729)"><circle class="d" cx="23.076" cy="23.076" r="23.076"/><circle class="e" cx="23.076" cy="23.076" r="23.076" transform="translate(-10.902 -9.404)"/></g><g class="c" transform="translate(1410.551 4558.729)"><circle class="d" cx="23.076" cy="23.076" r="23.076"/><circle class="e" cx="23.076" cy="23.076" r="23.076" transform="translate(-10.902 -9.404)"/></g></g></svg>