<svg xmlns="http://www.w3.org/2000/svg" width="27.638" height="21.93" viewBox="0 0 27.638 21.93">
  <path id="Icon_awesome-medium-m" data-name="Icon awesome-medium-m" d="M4.272,8.974a1.079,1.079,0,0,0-.349-.9L1.347,4.963V4.5H9.358l6.194,13.582L21,4.5h7.639v.463L26.431,7.077a.644.644,0,0,0-.246.617V23.236a.644.644,0,0,0,.246.617l2.154,2.114v.463H17.746v-.463L19.98,23.8c.217-.217.217-.286.217-.617V10.625L13.986,26.39h-.84L5.924,10.625V21.19a1.439,1.439,0,0,0,.4,1.211l2.9,3.52v.463H1v-.457L3.9,22.4a1.392,1.392,0,0,0,.371-1.211Z" transform="translate(-0.998 -4.5)" fill="#06033d"/>
</svg>
