<svg xmlns="http://www.w3.org/2000/svg" width="25.598" height="29.255" viewBox="0 0 25.598 29.255">
  <path id="Icon_awesome-discord" data-name="Icon awesome-discord" d="M16.983,13.9a1.5,1.5,0,1,1-1.492-1.624A1.558,1.558,0,0,1,16.983,13.9Zm-6.831-1.624a1.629,1.629,0,0,0,0,3.247A1.558,1.558,0,0,0,11.644,13.9,1.549,1.549,0,0,0,10.152,12.273ZM25.6,3.013V29.255C21.913,26,23.092,27.077,18.811,23.1l.775,2.706H3A3.006,3.006,0,0,1,0,22.79V3.013A3.006,3.006,0,0,1,3,0H22.6A3.006,3.006,0,0,1,25.6,3.013ZM21.429,16.88a19.589,19.589,0,0,0-2.106-8.528,7.233,7.233,0,0,0-4.11-1.536l-.2.234A9.735,9.735,0,0,1,18.65,8.908,12.429,12.429,0,0,0,7.723,8.484c-.541.249-.863.424-.863.424a9.868,9.868,0,0,1,3.847-1.916l-.146-.176a7.233,7.233,0,0,0-4.11,1.536A19.589,19.589,0,0,0,4.344,16.88,5.3,5.3,0,0,0,8.806,19.1s.541-.658.98-1.214a4.549,4.549,0,0,1-2.56-1.726c.215.151.57.346.6.366a10.663,10.663,0,0,0,9.128.512,8.37,8.37,0,0,0,1.682-.863,4.616,4.616,0,0,1-2.648,1.741c.439.556.965,1.185.965,1.185A5.347,5.347,0,0,0,21.429,16.88Z" fill="#06033d"/>
</svg>
