<svg xmlns="http://www.w3.org/2000/svg" width="31.206" height="21.941" viewBox="0 0 31.206 21.941">
  <path id="Icon_awesome-youtube" data-name="Icon awesome-youtube" d="M31.6,7.933a3.921,3.921,0,0,0-2.759-2.777C26.411,4.5,16.653,4.5,16.653,4.5s-9.758,0-12.192.656A3.921,3.921,0,0,0,1.7,7.933a41.133,41.133,0,0,0-.652,7.56,41.133,41.133,0,0,0,.652,7.56,3.863,3.863,0,0,0,2.759,2.732c2.434.656,12.192.656,12.192.656s9.758,0,12.192-.656A3.863,3.863,0,0,0,31.6,23.053a41.133,41.133,0,0,0,.652-7.56,41.133,41.133,0,0,0-.652-7.56Zm-18.142,12.2v-9.28l8.156,4.64-8.156,4.64Z" transform="translate(-1.05 -4.5)" fill="#06033d"/>
</svg>
