<svg xmlns="http://www.w3.org/2000/svg" width="100.492" height="99.868" viewBox="0 0 100.492 99.868"><defs><style>.a{fill:#2e2942;}.b{fill:#f1f1f3;}.c{fill:#abaab4;}.d{fill:#f9d869;}.e{fill:#f6c943;}.f{fill:#dbd9d1;}</style></defs><g transform="translate(-77.823 -4.001)"><path class="a" d="M175.772,317.078c-1.794-2.782-3.979-1.374-5.773-4.157s.391-4.19-1.4-6.973-3.979-1.374-5.773-4.157.39-4.192-1.4-6.975c-1.1-1.7-3.083-5.212-4.293-5.7l-9.682,4.784,16.849,26.574a5.493,5.493,0,0,0,7.595,1.641l3.224-2.078a2.144,2.144,0,0,0,.674-2.94Z" transform="translate(-53.508 -219.127)"/><path class="a" d="M94.413,286.127l-7.606,4.693a3.071,3.071,0,0,1-4.226-1l-4.3-6.969a3.071,3.071,0,0,1,1-4.226l7.606-4.693a1.9,1.9,0,0,1,2.616.619l5.529,8.961A1.9,1.9,0,0,1,94.413,286.127Z" transform="translate(0 -207.236)"/><path class="b" d="M111.58,90.907l-15.439,9.527a4.322,4.322,0,0,0-1.41,5.948l7.614,12.339a4.323,4.323,0,0,0,5.949,1.409l15.439-9.526,48.832-10.63L142.984,52.031Z" transform="translate(-12.5 -36.913)"/><path class="c" d="M178.245,210.367l-48.581,11.038-19.118,11.8L115,240.41a4.322,4.322,0,0,0,5.948,1.409l15.44-9.526,48.832-10.63Z" transform="translate(-25.15 -158.601)"/><path class="d" d="M123.732,239.693l-15.44,9.526a4.322,4.322,0,0,1-5.948-1.409L94.73,235.471a4.322,4.322,0,0,1,1.409-5.948L111.578,220Z" transform="translate(-12.498 -166.002)"/><path class="e" d="M129.665,258.059l-19.118,11.8L115,277.063a4.322,4.322,0,0,0,5.948,1.409l7.719-4.763,7.72-4.763Z" transform="translate(-25.15 -195.255)"/><path class="d" d="M321.443,88.462l-2.108,1.3a2.324,2.324,0,0,1-3.2-.758l-31.8-51.54a2.324,2.324,0,0,1,.758-3.2l2.107-1.3a2.323,2.323,0,0,1,3.2.758l31.8,51.54A2.325,2.325,0,0,1,321.443,88.462Z" transform="translate(-158.448 -21.994)"/><path class="e" d="M411.576,231.914l-5.231-8.48-6.064,3.742,5.232,8.479a2.324,2.324,0,0,0,3.2.758l2.108-1.3A2.325,2.325,0,0,0,411.576,231.914Z" transform="translate(-247.824 -168.644)"/><path class="f" d="M403.443,100.917a1.762,1.762,0,0,1-.925-3.263l9.549-5.874a1.762,1.762,0,0,1,1.846,3l-9.549,5.874A1.745,1.745,0,0,1,403.443,100.917Z" transform="translate(-248.898 -67.261)"/><path class="f" d="M452.052,178.045c-.057,0-.115,0-.173-.008l-14-1.361a1.761,1.761,0,1,1,.341-3.506l14,1.36a1.762,1.762,0,0,1-.168,3.515Z" transform="translate(-275.497 -130.007)"/><path class="f" d="M368.831,20.634a1.762,1.762,0,0,1-1.641-2.4l5.1-13.11A1.762,1.762,0,0,1,375.573,6.4l-5.1,13.109A1.763,1.763,0,0,1,368.831,20.634Z" transform="translate(-222.299 0)"/></g></svg>