<svg id="money" xmlns="http://www.w3.org/2000/svg" width="110.39" height="113.946" viewBox="0 0 110.39 113.946">
  <g id="Group_64" data-name="Group 64" transform="translate(0 0)">
    <g id="Group_46" data-name="Group 46" transform="translate(22.741)">
      <g id="Group_41" data-name="Group 41" transform="translate(4.498 10.439)">
        <g id="Group_39" data-name="Group 39">
          <path id="Path_97" data-name="Path 97" d="M152.576,57.432a1.717,1.717,0,0,1-1.386-.7,9.309,9.309,0,0,0-8.724-4.094,17.273,17.273,0,0,1-11.286-2.564,1.719,1.719,0,0,1,1.852-2.9,13.865,13.865,0,0,0,9.07,2.042,12.79,12.79,0,0,1,11.858,5.475,1.72,1.72,0,0,1-1.383,2.739Z" transform="translate(-130.385 -46.905)" fill="#ffd064"/>
        </g>
        <g id="Group_40" data-name="Group 40" transform="translate(2.471 9.307)">
          <path id="Path_98" data-name="Path 98" d="M143.205,99.076a1.72,1.72,0,0,1-1.464-2.619c2.2-3.59,6.243-6.058,11.68-7.136a31.177,31.177,0,0,1,7.43-.561,1.719,1.719,0,0,1-.233,3.431c-.119-.008-11.794-.7-15.947,6.065a1.718,1.718,0,0,1-1.467.82Z" transform="translate(-141.487 -88.726)" fill="#ffd064"/>
        </g>
      </g>
      <g id="Group_45" data-name="Group 45">
        <g id="Group_44" data-name="Group 44">
          <path id="Path_99" data-name="Path 99" d="M144.777,95.981c28.238,0,43.851-41.419-.74-73.409a4.184,4.184,0,0,1-1.753-3.442,5.6,5.6,0,0,1,1.017-3.148,81.373,81.373,0,0,0,6.894-12.188,1.416,1.416,0,0,0-1.34-2.042C146.176,1.753,146.176,0,143.5,0s-2.678,1.753-5.357,1.753c-2.282,0-3.219-1.964-4.329-.535-3.236,4.165,7.848,18.813,7.848,18.813C92.7,52.213,108.489,95.982,137.394,95.982h7.383Z" transform="translate(-110.172 0)" fill="#eabc6b"/>
          <g id="Group_42" data-name="Group 42" transform="translate(29.566)">
            <path id="Path_100" data-name="Path 100" d="M259.161,20.03s11.249-14.6,8.015-18.788c-1.1-1.427-2.043.511-4.323.511C260.174,1.753,260.174,0,257.5,0s-2.679,1.753-5.357,1.753c-.132,0-.252-.007-.372-.016-1.076,4.613-5.926,11.8-8.7,15.649,1.093,1.6,1.88,2.644,1.88,2.644q-.979.644-1.922,1.294c46.774,32.15,31.123,74.657,2.517,74.657H263.6c28.992,0,44.679-43.661-4.44-75.951Z" transform="translate(-243.022 0)" fill="#e8ae4d"/>
          </g>
          <g id="Group_43" data-name="Group 43" transform="translate(25.271 17.009)">
            <path id="Path_101" data-name="Path 101" d="M246.248,84.64a39.133,39.133,0,0,1-19.532,0,4.17,4.17,0,0,1-2.747-5.459L224,79.1a3.848,3.848,0,0,1,4.542-2.565,31.8,31.8,0,0,0,15.886,0,3.848,3.848,0,0,1,4.542,2.565l.027.078A4.17,4.17,0,0,1,246.248,84.64Z" transform="translate(-223.722 -76.425)" fill="#ffe07d"/>
          </g>
        </g>
      </g>
    </g>
    <g id="Group_63" data-name="Group 63" transform="translate(0 65.134)">
      <g id="Group_62" data-name="Group 62">
        <g id="Group_61" data-name="Group 61">
          <g id="Group_60" data-name="Group 60">
            <g id="Group_59" data-name="Group 59">
              <g id="Group_58" data-name="Group 58">
                <g id="Group_57" data-name="Group 57">
                  <g id="Group_56" data-name="Group 56">
                    <g id="Group_55" data-name="Group 55">
                      <g id="Group_54" data-name="Group 54">
                        <g id="Group_53" data-name="Group 53" transform="translate(9.077 6.025)">
                          <g id="Group_52" data-name="Group 52">
                            <g id="Group_47" data-name="Group 47" transform="translate(0)">
                              <path id="Path_102" data-name="Path 102" d="M48.777,352.074l24.894,9.266a18.943,18.943,0,0,0,6.608,1.19h25.655a18.943,18.943,0,0,0,10.139-2.942L148.2,339.233a5.638,5.638,0,0,0,.918-7.388c-1.745-2.564-4.63-3.009-7.806-1.508l-31.274,13.77.037-5.074a9.082,9.082,0,0,0-7.765-8.094L83.26,328.747c-4.393-.622-6.589-2.094-10.419-4.334a34.135,34.135,0,0,0-17.236-4.671H48.777Z" transform="translate(-48.777 -319.742)" fill="#ffddce"/>
                            </g>
                            <path id="Path_103" data-name="Path 103" d="M72.159,356.4a19.916,19.916,0,0,0,6.947,1.251h26.97a19.911,19.911,0,0,0,8.288-1.809l18.859-11.95a5.824,5.824,0,0,0,1.783-8.284s-.574-.984-1.164-1.985l-23.809,10.483.037-5.074a9.082,9.082,0,0,0-7.765-8.094L83.26,328.747c-4.393-.622-6.589-2.094-10.419-4.334a34.135,34.135,0,0,0-17.236-4.671H48.777V347.7Z" transform="translate(-48.777 -319.742)" fill="#ffddce"/>
                            <path id="Path_104" data-name="Path 104" d="M149.113,365.858c-1.745-2.564-4.63-3.009-7.806-1.508l-8.6,3.788c.417.659.748,1.186.748,1.186a5.638,5.638,0,0,1-.918,7.388l-18.717,11.86a18.941,18.941,0,0,1-7.884,1.721H80.279a18.943,18.943,0,0,1-6.608-1.19l-24.894-9.266v6.25l24.894,9.266a18.943,18.943,0,0,0,6.608,1.19h25.655a18.943,18.943,0,0,0,10.139-2.942L148.2,373.246A5.638,5.638,0,0,0,149.113,365.858Z" transform="translate(-48.777 -353.755)" fill="#ffcbbe"/>
                            <g id="Group_48" data-name="Group 48" transform="translate(58.957 14.064)">
                              <path id="Path_105" data-name="Path 105" d="M313.691,382.938v.122l.081-.036Z" transform="translate(-313.69 -382.938)" fill="#f5dbcc"/>
                            </g>
                            <g id="Group_51" data-name="Group 51" transform="translate(40.09 20.924)">
                              <g id="Group_50" data-name="Group 50">
                                <g id="Group_49" data-name="Group 49">
                                  <path id="Path_106" data-name="Path 106" d="M250.08,417.2H230.633a1.719,1.719,0,1,1,0-3.439H250.1Z" transform="translate(-228.914 -413.759)" fill="#ffcbbe"/>
                                </g>
                              </g>
                            </g>
                          </g>
                        </g>
                        <path id="Path_107" data-name="Path 107" d="M22.424,335.983a3.27,3.27,0,0,1-3.27,3.27H11.26a3.27,3.27,0,0,1-3.27-3.27V295.938a3.27,3.27,0,0,1,3.27-3.27h7.893a3.27,3.27,0,0,1,3.27,3.27Z" transform="translate(-7.99 -292.668)" fill="#407093"/>
                      </g>
                    </g>
                  </g>
                </g>
              </g>
            </g>
          </g>
        </g>
      </g>
    </g>
  </g>
  <path id="Icon_awesome-ethereum" data-name="Icon awesome-ethereum" d="M25.023,20.992,12.8,28.461.563,20.992,12.8,0ZM12.8,30.86.563,23.39,12.8,41.211,25.031,23.39Z" transform="translate(47.965 34.484)" fill="#fff"/>
</svg>
