<svg xmlns="http://www.w3.org/2000/svg" width="97.031" height="81.62" viewBox="0 0 97.031 81.62"><defs><style>.a{fill:#f9d869;}.b{fill:#f6c943;}.c{fill:#fff;}</style></defs><path class="a" d="M81.638,178.315H75.369a2.565,2.565,0,0,0-2.565,2.565v8.034a2.566,2.566,0,0,1-3.989,2.135L58.7,179.177a5.131,5.131,0,0,0-2.846-.862H15.393A15.393,15.393,0,0,1,0,162.923V125.258a15.393,15.393,0,0,1,15.393-15.393H81.638a15.393,15.393,0,0,1,15.393,15.393v37.665a15.394,15.394,0,0,1-15.393,15.393Z" transform="translate(0 -109.865)"/><path class="b" d="M117.885,109.865h-18.8a15.393,15.393,0,0,1,15.393,15.393v37.665a15.393,15.393,0,0,1-15.393,15.393H92.819a2.477,2.477,0,0,0-.3.03,5.12,5.12,0,0,1,2.433.831l10.111,11.872a2.566,2.566,0,0,0,3.989-2.135v-8.034a2.565,2.565,0,0,1,2.565-2.565h6.269a15.393,15.393,0,0,0,15.393-15.393V125.258a15.392,15.392,0,0,0-15.392-15.393Z" transform="translate(-36.247 -109.865)"/><g transform="translate(19.371 20.128)"><path class="c" d="M85.439,152.357H36.549a4.7,4.7,0,0,1,0-9.4h48.89a4.7,4.7,0,1,1,0,9.4Z" transform="translate(-31.85 -142.959)"/><g transform="translate(0 18.797)"><path class="c" d="M85.439,183.262H36.549a4.7,4.7,0,0,1,0-9.4h48.89a4.7,4.7,0,1,1,0,9.4Z" transform="translate(-31.85 -173.864)"/></g></g></svg>